<mxfile host="app.diagrams.net" agent="Mozilla/5.0 (Windows NT 10.0; Win64; x64) AppleWebKit/537.36 (KHTML, like Gecko) Chrome/130.0.0.0 Safari/537.36" version="24.8.4">
  <diagram name="Pagina-1" id="Q8ebSe6SH-asBx5pW5yb">
    <mxGraphModel dx="1432" dy="737" grid="1" gridSize="10" guides="1" tooltips="1" connect="1" arrows="1" fold="1" page="1" pageScale="1" pageWidth="827" pageHeight="1169" math="0" shadow="0">
      <root>
        <mxCell id="0" />
        <mxCell id="1" parent="0" />
        <mxCell id="X0UQXJLC1dQcE8E02zXS-6" style="edgeStyle=orthogonalEdgeStyle;rounded=0;sketch=1;hachureGap=4;jiggle=2;curveFitting=1;orthogonalLoop=1;jettySize=auto;html=1;entryX=0.5;entryY=0;entryDx=0;entryDy=0;fontFamily=Architects Daughter;fontSource=https%3A%2F%2Ffonts.googleapis.com%2Fcss%3Ffamily%3DArchitects%2BDaughter;fillColor=#e1d5e7;strokeColor=#9673a6;" parent="1" source="X0UQXJLC1dQcE8E02zXS-4" target="X0UQXJLC1dQcE8E02zXS-5" edge="1">
          <mxGeometry relative="1" as="geometry" />
        </mxCell>
        <mxCell id="X0UQXJLC1dQcE8E02zXS-7" value="&lt;font face=&quot;Comic Sans MS&quot;&gt;1. Click sul pulsante Ottieni Pass,&lt;/font&gt;&lt;div&gt;&lt;font face=&quot;Comic Sans MS&quot;&gt;Apre una nuova pagina su NeverlandKiz oppure Flip della pagina corrente&lt;/font&gt;&lt;/div&gt;" style="edgeLabel;html=1;align=center;verticalAlign=middle;resizable=0;points=[];sketch=1;hachureGap=4;jiggle=2;curveFitting=1;fontFamily=Architects Daughter;fontSource=https%3A%2F%2Ffonts.googleapis.com%2Fcss%3Ffamily%3DArchitects%2BDaughter;" parent="X0UQXJLC1dQcE8E02zXS-6" vertex="1" connectable="0">
          <mxGeometry x="-0.02" y="2" relative="1" as="geometry">
            <mxPoint as="offset" />
          </mxGeometry>
        </mxCell>
        <mxCell id="X0UQXJLC1dQcE8E02zXS-4" value="&lt;h1 style=&quot;margin-top: 0px;&quot;&gt;NeverlandKiz WebSite&lt;/h1&gt;&lt;p&gt;Come da accordo, Stripe si occuperà di Gestire il tasto SUBSCRIBE e quindi la relativa Sottoscrizione dell&#39;utente.&lt;/p&gt;&lt;p&gt;Accanto al bottone ACCEDI, verrà Aggiunto un&#39;altro bottone per permettere all&#39;utente di generare il QRCode.&lt;/p&gt;" style="text;html=1;whiteSpace=wrap;overflow=hidden;rounded=1;fontFamily=Comic Sans MS;align=center;fillColor=#e1d5e7;strokeColor=none;sketch=1;curveFitting=1;jiggle=2;" parent="1" vertex="1">
          <mxGeometry x="185.03" y="30" width="459" height="124.24" as="geometry" />
        </mxCell>
        <mxCell id="aLCnGwpAxpOMU-bBEDsF-4" style="edgeStyle=orthogonalEdgeStyle;rounded=0;sketch=1;hachureGap=4;jiggle=2;curveFitting=1;orthogonalLoop=1;jettySize=auto;html=1;entryX=0;entryY=0.5;entryDx=0;entryDy=0;fontFamily=Architects Daughter;fontSource=https%3A%2F%2Ffonts.googleapis.com%2Fcss%3Ffamily%3DArchitects%2BDaughter;fillColor=#dae8fc;strokeColor=#6c8ebf;" edge="1" parent="1" source="X0UQXJLC1dQcE8E02zXS-5" target="aLCnGwpAxpOMU-bBEDsF-3">
          <mxGeometry relative="1" as="geometry">
            <Array as="points">
              <mxPoint x="40" y="284" />
              <mxPoint x="40" y="600" />
            </Array>
          </mxGeometry>
        </mxCell>
        <mxCell id="X0UQXJLC1dQcE8E02zXS-5" value="&lt;font face=&quot;Comic Sans MS&quot;&gt;2. Schermata di Inserimento Email&lt;/font&gt;" style="rounded=1;whiteSpace=wrap;html=1;sketch=1;hachureGap=4;jiggle=2;curveFitting=1;fontFamily=Architects Daughter;fontSource=https%3A%2F%2Ffonts.googleapis.com%2Fcss%3Ffamily%3DArchitects%2BDaughter;fillColor=#dae8fc;strokeColor=#6c8ebf;" parent="1" vertex="1">
          <mxGeometry x="354.53" y="254.24" width="120" height="60" as="geometry" />
        </mxCell>
        <mxCell id="X0UQXJLC1dQcE8E02zXS-11" value="" style="edgeStyle=orthogonalEdgeStyle;rounded=0;sketch=1;hachureGap=4;jiggle=2;curveFitting=1;orthogonalLoop=1;jettySize=auto;html=1;fontFamily=Architects Daughter;fontSource=https%3A%2F%2Ffonts.googleapis.com%2Fcss%3Ffamily%3DArchitects%2BDaughter;fillColor=#dae8fc;strokeColor=#6c8ebf;" parent="1" source="X0UQXJLC1dQcE8E02zXS-8" target="X0UQXJLC1dQcE8E02zXS-10" edge="1">
          <mxGeometry relative="1" as="geometry" />
        </mxCell>
        <mxCell id="X0UQXJLC1dQcE8E02zXS-8" value="In questa Schermata l&#39;utente inserisce la sua email e clicca su Invia.&lt;div&gt;Lato nostro controlleremo che l&#39;email sia presente su Stripe e nel caso esista manderemo una email all&#39;utente per poter mostrare la Schermata di selezione dei prodotti&lt;/div&gt;" style="text;html=1;align=center;verticalAlign=middle;whiteSpace=wrap;rounded=1;fontFamily=Comic Sans MS;sketch=1;curveFitting=1;jiggle=2;fillColor=#dae8fc;strokeColor=none;glass=0;" parent="1" vertex="1">
          <mxGeometry x="246" y="314.24" width="336" height="90" as="geometry" />
        </mxCell>
        <mxCell id="X0UQXJLC1dQcE8E02zXS-13" style="edgeStyle=orthogonalEdgeStyle;rounded=0;sketch=1;hachureGap=4;jiggle=2;curveFitting=1;orthogonalLoop=1;jettySize=auto;html=1;fontFamily=Architects Daughter;fontSource=https%3A%2F%2Ffonts.googleapis.com%2Fcss%3Ffamily%3DArchitects%2BDaughter;fillColor=#ffe6cc;strokeColor=#d79b00;" parent="1" source="X0UQXJLC1dQcE8E02zXS-10" target="X0UQXJLC1dQcE8E02zXS-12" edge="1">
          <mxGeometry relative="1" as="geometry" />
        </mxCell>
        <mxCell id="X0UQXJLC1dQcE8E02zXS-14" value="&lt;font face=&quot;Comic Sans MS&quot;&gt;Email non Esistente&lt;/font&gt;" style="edgeLabel;html=1;align=center;verticalAlign=middle;resizable=0;points=[];sketch=1;hachureGap=4;jiggle=2;curveFitting=1;fontFamily=Architects Daughter;fontSource=https%3A%2F%2Ffonts.googleapis.com%2Fcss%3Ffamily%3DArchitects%2BDaughter;" parent="X0UQXJLC1dQcE8E02zXS-13" vertex="1" connectable="0">
          <mxGeometry x="-0.0018" y="-1" relative="1" as="geometry">
            <mxPoint as="offset" />
          </mxGeometry>
        </mxCell>
        <mxCell id="X0UQXJLC1dQcE8E02zXS-16" style="edgeStyle=orthogonalEdgeStyle;rounded=0;sketch=1;hachureGap=4;jiggle=2;curveFitting=1;orthogonalLoop=1;jettySize=auto;html=1;fontFamily=Architects Daughter;fontSource=https%3A%2F%2Ffonts.googleapis.com%2Fcss%3Ffamily%3DArchitects%2BDaughter;fillColor=#ffe6cc;strokeColor=#d79b00;" parent="1" source="X0UQXJLC1dQcE8E02zXS-10" target="X0UQXJLC1dQcE8E02zXS-15" edge="1">
          <mxGeometry relative="1" as="geometry" />
        </mxCell>
        <mxCell id="X0UQXJLC1dQcE8E02zXS-17" value="&lt;font face=&quot;Comic Sans MS&quot;&gt;Email Esistete&lt;/font&gt;" style="edgeLabel;html=1;align=center;verticalAlign=middle;resizable=0;points=[];sketch=1;hachureGap=4;jiggle=2;curveFitting=1;fontFamily=Architects Daughter;fontSource=https%3A%2F%2Ffonts.googleapis.com%2Fcss%3Ffamily%3DArchitects%2BDaughter;" parent="X0UQXJLC1dQcE8E02zXS-16" vertex="1" connectable="0">
          <mxGeometry x="-0.0869" y="-1" relative="1" as="geometry">
            <mxPoint as="offset" />
          </mxGeometry>
        </mxCell>
        <mxCell id="X0UQXJLC1dQcE8E02zXS-10" value="" style="rhombus;whiteSpace=wrap;html=1;sketch=1;hachureGap=4;jiggle=2;curveFitting=1;fontFamily=Architects Daughter;fontSource=https%3A%2F%2Ffonts.googleapis.com%2Fcss%3Ffamily%3DArchitects%2BDaughter;fillColor=#ffe6cc;strokeColor=#d79b00;" parent="1" vertex="1">
          <mxGeometry x="391.79999999999995" y="444.24" width="45.47" height="50" as="geometry" />
        </mxCell>
        <mxCell id="X0UQXJLC1dQcE8E02zXS-12" value="&lt;font face=&quot;Comic Sans MS&quot;&gt;ERRORE&lt;/font&gt;" style="rounded=1;whiteSpace=wrap;html=1;sketch=1;hachureGap=4;jiggle=2;curveFitting=1;fontFamily=Architects Daughter;fontSource=https%3A%2F%2Ffonts.googleapis.com%2Fcss%3Ffamily%3DArchitects%2BDaughter;fillColor=#f8cecc;strokeColor=#b85450;" parent="1" vertex="1">
          <mxGeometry x="90" y="439.24" width="120" height="60" as="geometry" />
        </mxCell>
        <mxCell id="X0UQXJLC1dQcE8E02zXS-15" value="&lt;font face=&quot;Comic Sans MS&quot;&gt;3. Invio del Template HTML via email&lt;/font&gt;" style="rounded=1;whiteSpace=wrap;html=1;sketch=1;hachureGap=4;jiggle=2;curveFitting=1;fontFamily=Architects Daughter;fontSource=https%3A%2F%2Ffonts.googleapis.com%2Fcss%3Ffamily%3DArchitects%2BDaughter;fillColor=#d5e8d4;strokeColor=#82b366;" parent="1" vertex="1">
          <mxGeometry x="600" y="439.24" width="120" height="60" as="geometry" />
        </mxCell>
        <mxCell id="X0UQXJLC1dQcE8E02zXS-18" value="&lt;font face=&quot;Comic Sans MS&quot;&gt;Qui creaiamo un template HTML per inviare una email con il relativo bottone di accesso al portale &lt;/font&gt;&lt;font face=&quot;Comic Sans MS&quot;&gt;(Potrebbe servire una sessione lato nostro per gestire la sessione corrente).&lt;/font&gt;&lt;div&gt;&lt;font face=&quot;Comic Sans MS&quot;&gt;Nel link di redirect a NeverlnKiz c saranno i dati necessari per visualizzare le sottoscrizioni dell&#39;utente con la relativa sessione.&lt;/font&gt;&lt;/div&gt;&lt;div&gt;&lt;font face=&quot;Comic Sans MS&quot;&gt;(La sessione serve per evitare possibili vulnerabilità)&lt;/font&gt;&lt;/div&gt;" style="text;html=1;align=center;verticalAlign=middle;whiteSpace=wrap;rounded=1;fontFamily=Architects Daughter;fontSource=https%3A%2F%2Ffonts.googleapis.com%2Fcss%3Ffamily%3DArchitects%2BDaughter;sketch=1;curveFitting=1;jiggle=2;fillColor=#d5e8d4;strokeColor=none;" parent="1" vertex="1">
          <mxGeometry x="510" y="499.24" width="300" height="150" as="geometry" />
        </mxCell>
        <mxCell id="LOxiiAEz1P8uojWszNT4-5" style="edgeStyle=orthogonalEdgeStyle;rounded=0;sketch=1;hachureGap=4;jiggle=2;curveFitting=1;orthogonalLoop=1;jettySize=auto;html=1;entryX=1;entryY=0.5;entryDx=0;entryDy=0;fontFamily=Architects Daughter;fontSource=https%3A%2F%2Ffonts.googleapis.com%2Fcss%3Ffamily%3DArchitects%2BDaughter;fillColor=#d5e8d4;strokeColor=#82b366;" parent="1" source="LOxiiAEz1P8uojWszNT4-1" target="LOxiiAEz1P8uojWszNT4-4" edge="1">
          <mxGeometry relative="1" as="geometry" />
        </mxCell>
        <mxCell id="LOxiiAEz1P8uojWszNT4-1" value="" style="verticalLabelPosition=bottom;shadow=0;dashed=0;align=center;html=1;verticalAlign=top;strokeWidth=1;shape=mxgraph.mockup.misc.mail2;strokeColor=#82b366;sketch=1;hachureGap=4;jiggle=2;curveFitting=1;fontFamily=Architects Daughter;fontSource=https%3A%2F%2Ffonts.googleapis.com%2Fcss%3Ffamily%3DArchitects%2BDaughter;fillColor=#d5e8d4;" parent="1" vertex="1">
          <mxGeometry x="610" y="704.24" width="100" height="60" as="geometry" />
        </mxCell>
        <mxCell id="LOxiiAEz1P8uojWszNT4-2" style="edgeStyle=orthogonalEdgeStyle;rounded=0;sketch=1;hachureGap=4;jiggle=2;curveFitting=1;orthogonalLoop=1;jettySize=auto;html=1;entryX=0.5;entryY=-0.05;entryDx=0;entryDy=0;entryPerimeter=0;fontFamily=Architects Daughter;fontSource=https%3A%2F%2Ffonts.googleapis.com%2Fcss%3Ffamily%3DArchitects%2BDaughter;fillColor=#d5e8d4;strokeColor=#82b366;" parent="1" source="X0UQXJLC1dQcE8E02zXS-18" target="LOxiiAEz1P8uojWszNT4-1" edge="1">
          <mxGeometry relative="1" as="geometry" />
        </mxCell>
        <mxCell id="LOxiiAEz1P8uojWszNT4-3" value="&lt;font face=&quot;Comic Sans MS&quot;&gt;Email con HTML Template e bottone che accede a NeverlandKiz/pass&lt;/font&gt;" style="text;html=1;align=center;verticalAlign=middle;whiteSpace=wrap;rounded=1;fontFamily=Architects Daughter;fontSource=https%3A%2F%2Ffonts.googleapis.com%2Fcss%3Ffamily%3DArchitects%2BDaughter;fillColor=#d5e8d4;strokeColor=none;sketch=1;curveFitting=1;jiggle=2;" parent="1" vertex="1">
          <mxGeometry x="575" y="774.24" width="175" height="55.76" as="geometry" />
        </mxCell>
        <mxCell id="aLCnGwpAxpOMU-bBEDsF-5" style="edgeStyle=orthogonalEdgeStyle;rounded=0;sketch=1;hachureGap=4;jiggle=2;curveFitting=1;orthogonalLoop=1;jettySize=auto;html=1;entryX=1;entryY=0.5;entryDx=0;entryDy=0;fontFamily=Architects Daughter;fontSource=https%3A%2F%2Ffonts.googleapis.com%2Fcss%3Ffamily%3DArchitects%2BDaughter;fillColor=#e1d5e7;strokeColor=#9673a6;" edge="1" parent="1" source="LOxiiAEz1P8uojWszNT4-4" target="aLCnGwpAxpOMU-bBEDsF-3">
          <mxGeometry relative="1" as="geometry">
            <Array as="points">
              <mxPoint x="415" y="600" />
            </Array>
          </mxGeometry>
        </mxCell>
        <mxCell id="aLCnGwpAxpOMU-bBEDsF-10" style="edgeStyle=orthogonalEdgeStyle;rounded=0;sketch=1;hachureGap=4;jiggle=2;curveFitting=1;orthogonalLoop=1;jettySize=auto;html=1;entryX=0.5;entryY=0;entryDx=0;entryDy=0;fontFamily=Architects Daughter;fontSource=https%3A%2F%2Ffonts.googleapis.com%2Fcss%3Ffamily%3DArchitects%2BDaughter;fillColor=#e1d5e7;strokeColor=#9673a6;" edge="1" parent="1" source="LOxiiAEz1P8uojWszNT4-4" target="aLCnGwpAxpOMU-bBEDsF-2">
          <mxGeometry relative="1" as="geometry">
            <Array as="points">
              <mxPoint x="280" y="734" />
              <mxPoint x="280" y="890" />
              <mxPoint x="663" y="890" />
            </Array>
          </mxGeometry>
        </mxCell>
        <mxCell id="aLCnGwpAxpOMU-bBEDsF-12" style="edgeStyle=orthogonalEdgeStyle;rounded=0;sketch=1;hachureGap=4;jiggle=2;curveFitting=1;orthogonalLoop=1;jettySize=auto;html=1;entryX=0.5;entryY=0;entryDx=0;entryDy=0;fontFamily=Architects Daughter;fontSource=https%3A%2F%2Ffonts.googleapis.com%2Fcss%3Ffamily%3DArchitects%2BDaughter;fillColor=#e1d5e7;strokeColor=#9673a6;" edge="1" parent="1" source="LOxiiAEz1P8uojWszNT4-4" target="aLCnGwpAxpOMU-bBEDsF-1">
          <mxGeometry relative="1" as="geometry">
            <Array as="points">
              <mxPoint x="280" y="734" />
              <mxPoint x="280" y="890" />
              <mxPoint x="150" y="890" />
            </Array>
          </mxGeometry>
        </mxCell>
        <mxCell id="LOxiiAEz1P8uojWszNT4-4" value="&lt;font face=&quot;Comic Sans MS&quot;&gt;4. Schermata Pass&lt;/font&gt;" style="rounded=1;whiteSpace=wrap;html=1;sketch=1;hachureGap=4;jiggle=2;curveFitting=1;fontFamily=Architects Daughter;fontSource=https%3A%2F%2Ffonts.googleapis.com%2Fcss%3Ffamily%3DArchitects%2BDaughter;fillColor=#e1d5e7;strokeColor=#9673a6;" parent="1" vertex="1">
          <mxGeometry x="354.53" y="704.24" width="120" height="60" as="geometry" />
        </mxCell>
        <mxCell id="LOxiiAEz1P8uojWszNT4-6" value="&lt;font face=&quot;Comic Sans MS&quot;&gt;Qui è dove l&#39;utente avrà a disposizione le sottoscrizioni che ha acquistato, selezionando una di esse tramite il bottone Visualizza Pass o Scarica Pass vedrà iil suo QRCode&amp;nbsp;&lt;/font&gt;" style="text;html=1;align=center;verticalAlign=middle;whiteSpace=wrap;rounded=1;fontFamily=Architects Daughter;fontSource=https%3A%2F%2Ffonts.googleapis.com%2Fcss%3Ffamily%3DArchitects%2BDaughter;fillColor=#e1d5e7;strokeColor=none;sketch=1;curveFitting=1;jiggle=2;" parent="1" vertex="1">
          <mxGeometry x="302.53" y="774.24" width="224" height="90" as="geometry" />
        </mxCell>
        <mxCell id="aLCnGwpAxpOMU-bBEDsF-15" style="edgeStyle=orthogonalEdgeStyle;rounded=0;sketch=1;hachureGap=4;jiggle=2;curveFitting=1;orthogonalLoop=1;jettySize=auto;html=1;entryX=0;entryY=0.5;entryDx=0;entryDy=0;fontFamily=Architects Daughter;fontSource=https%3A%2F%2Ffonts.googleapis.com%2Fcss%3Ffamily%3DArchitects%2BDaughter;" edge="1" parent="1" source="aLCnGwpAxpOMU-bBEDsF-1" target="aLCnGwpAxpOMU-bBEDsF-14">
          <mxGeometry relative="1" as="geometry" />
        </mxCell>
        <mxCell id="aLCnGwpAxpOMU-bBEDsF-16" value="&lt;font face=&quot;Comic Sans MS&quot;&gt;Durata minima non rispettata&lt;/font&gt;" style="edgeLabel;html=1;align=center;verticalAlign=middle;resizable=0;points=[];sketch=1;hachureGap=4;jiggle=2;curveFitting=1;fontFamily=Architects Daughter;fontSource=https%3A%2F%2Ffonts.googleapis.com%2Fcss%3Ffamily%3DArchitects%2BDaughter;" vertex="1" connectable="0" parent="aLCnGwpAxpOMU-bBEDsF-15">
          <mxGeometry x="-0.1" y="1" relative="1" as="geometry">
            <mxPoint as="offset" />
          </mxGeometry>
        </mxCell>
        <mxCell id="aLCnGwpAxpOMU-bBEDsF-1" value="&lt;font face=&quot;Comic Sans MS&quot;&gt;5. Cancellazione Sottoscrizione&lt;/font&gt;" style="rounded=1;whiteSpace=wrap;html=1;sketch=1;hachureGap=4;jiggle=2;curveFitting=1;fontFamily=Architects Daughter;fontSource=https%3A%2F%2Ffonts.googleapis.com%2Fcss%3Ffamily%3DArchitects%2BDaughter;fillColor=#ffcccc;strokeColor=#36393d;" vertex="1" parent="1">
          <mxGeometry x="90" y="940" width="120" height="60" as="geometry" />
        </mxCell>
        <mxCell id="aLCnGwpAxpOMU-bBEDsF-2" value="&lt;font face=&quot;Comic Sans MS&quot;&gt;6. Nuova Sottoscrizione&lt;/font&gt;" style="rounded=1;whiteSpace=wrap;html=1;sketch=1;hachureGap=4;jiggle=2;curveFitting=1;fontFamily=Architects Daughter;fontSource=https%3A%2F%2Ffonts.googleapis.com%2Fcss%3Ffamily%3DArchitects%2BDaughter;fillColor=#b0e3e6;strokeColor=#0e8088;labelBorderColor=none;" vertex="1" parent="1">
          <mxGeometry x="602.5" y="930" width="120" height="60" as="geometry" />
        </mxCell>
        <mxCell id="aLCnGwpAxpOMU-bBEDsF-3" value="&lt;font face=&quot;Comic Sans MS&quot;&gt;5. Contattami&lt;/font&gt;" style="rounded=1;whiteSpace=wrap;html=1;sketch=1;hachureGap=4;jiggle=2;curveFitting=1;fontFamily=Architects Daughter;fontSource=https%3A%2F%2Ffonts.googleapis.com%2Fcss%3Ffamily%3DArchitects%2BDaughter;fillColor=#fad7ac;strokeColor=#b46504;" vertex="1" parent="1">
          <mxGeometry x="89.99999999999997" y="570" width="120" height="60" as="geometry" />
        </mxCell>
        <mxCell id="aLCnGwpAxpOMU-bBEDsF-8" style="edgeStyle=orthogonalEdgeStyle;rounded=0;sketch=1;hachureGap=4;jiggle=2;curveFitting=1;orthogonalLoop=1;jettySize=auto;html=1;exitX=0.5;exitY=1;exitDx=0;exitDy=0;fontFamily=Architects Daughter;fontSource=https%3A%2F%2Ffonts.googleapis.com%2Fcss%3Ffamily%3DArchitects%2BDaughter;fillColor=#ffe6cc;strokeColor=#d79b00;" edge="1" parent="1" source="aLCnGwpAxpOMU-bBEDsF-6" target="aLCnGwpAxpOMU-bBEDsF-7">
          <mxGeometry relative="1" as="geometry" />
        </mxCell>
        <mxCell id="aLCnGwpAxpOMU-bBEDsF-6" value="&lt;font face=&quot;Comic Sans MS&quot;&gt;Qui è dove l&#39;utente potrà contattare NeverlandKiz direttamente.&lt;/font&gt;&lt;div&gt;&lt;font face=&quot;Comic Sans MS&quot;&gt;Si invieranno 2 Email, una all&#39;utente ed una a info@neverlandkiz.it&amp;nbsp;&lt;/font&gt;&lt;/div&gt;" style="text;html=1;align=center;verticalAlign=middle;whiteSpace=wrap;rounded=1;fontFamily=Architects Daughter;fontSource=https%3A%2F%2Ffonts.googleapis.com%2Fcss%3Ffamily%3DArchitects%2BDaughter;fillColor=#ffe6cc;strokeColor=none;sketch=1;curveFitting=1;jiggle=2;" vertex="1" parent="1">
          <mxGeometry x="38" y="640" width="224" height="80" as="geometry" />
        </mxCell>
        <mxCell id="aLCnGwpAxpOMU-bBEDsF-7" value="" style="verticalLabelPosition=bottom;shadow=0;dashed=0;align=center;html=1;verticalAlign=top;strokeWidth=1;shape=mxgraph.mockup.misc.mail2;strokeColor=#d79b00;sketch=1;hachureGap=4;jiggle=2;curveFitting=1;fontFamily=Architects Daughter;fontSource=https%3A%2F%2Ffonts.googleapis.com%2Fcss%3Ffamily%3DArchitects%2BDaughter;fillColor=#ffe6cc;" vertex="1" parent="1">
          <mxGeometry x="100" y="760" width="100" height="60" as="geometry" />
        </mxCell>
        <mxCell id="aLCnGwpAxpOMU-bBEDsF-9" value="&lt;font face=&quot;Comic Sans MS&quot;&gt;Invio 2 email con 2 template differenti&lt;/font&gt;" style="text;html=1;align=center;verticalAlign=middle;whiteSpace=wrap;rounded=1;fontFamily=Architects Daughter;fontSource=https%3A%2F%2Ffonts.googleapis.com%2Fcss%3Ffamily%3DArchitects%2BDaughter;fillColor=#ffe6cc;strokeColor=none;sketch=1;curveFitting=1;jiggle=2;" vertex="1" parent="1">
          <mxGeometry x="38" y="830" width="224" height="30" as="geometry" />
        </mxCell>
        <mxCell id="aLCnGwpAxpOMU-bBEDsF-11" value="&lt;font face=&quot;Comic Sans MS&quot;&gt;Qui è dove l&#39;utente potrà sottoscrivere ai nuovi prodotti presenti su Stripe.&lt;/font&gt;&lt;div&gt;&lt;font face=&quot;Comic Sans MS&quot;&gt;Si avvierà un flusso di checkout gestito da stripe&lt;/font&gt;&lt;/div&gt;" style="text;html=1;align=center;verticalAlign=middle;whiteSpace=wrap;rounded=1;fontFamily=Architects Daughter;fontSource=https%3A%2F%2Ffonts.googleapis.com%2Fcss%3Ffamily%3DArchitects%2BDaughter;fillColor=#b0e3e6;strokeColor=none;sketch=1;curveFitting=1;jiggle=2;" vertex="1" parent="1">
          <mxGeometry x="539.23" y="1000" width="246.53" height="80" as="geometry" />
        </mxCell>
        <mxCell id="aLCnGwpAxpOMU-bBEDsF-13" value="&lt;font face=&quot;Comic Sans MS&quot;&gt;Qui è dove l&#39;utente potrà cancellare la sottoscrizione ad un servizio se ha rispettato la durata minima prevista&lt;/font&gt;" style="text;html=1;align=center;verticalAlign=middle;whiteSpace=wrap;rounded=1;fontFamily=Architects Daughter;fontSource=https%3A%2F%2Ffonts.googleapis.com%2Fcss%3Ffamily%3DArchitects%2BDaughter;fillColor=#ffcccc;strokeColor=none;sketch=1;curveFitting=1;jiggle=2;" vertex="1" parent="1">
          <mxGeometry x="26.73" y="1010" width="246.53" height="60" as="geometry" />
        </mxCell>
        <mxCell id="aLCnGwpAxpOMU-bBEDsF-14" value="&lt;font face=&quot;Comic Sans MS&quot;&gt;ERRORE&lt;/font&gt;" style="rounded=1;whiteSpace=wrap;html=1;sketch=1;hachureGap=4;jiggle=2;curveFitting=1;fontFamily=Architects Daughter;fontSource=https%3A%2F%2Ffonts.googleapis.com%2Fcss%3Ffamily%3DArchitects%2BDaughter;fillColor=#f8cecc;strokeColor=#b85450;" vertex="1" parent="1">
          <mxGeometry x="390" y="940" width="120" height="60" as="geometry" />
        </mxCell>
      </root>
    </mxGraphModel>
  </diagram>
</mxfile>
